<svg xmlns="http://www.w3.org/2000/svg" viewBox="0 0 120 120"><defs><linearGradient id="bg" x2="1" y2="1"><stop stop-color="#fff4ef"/><stop offset="1" stop-color="#edcbd9"/></linearGradient><filter id="shadow" x="-40%" y="-40%" width="180%" height="180%"><feDropShadow dx="0" dy="4" stdDeviation="4" flood-color="#9f5371" flood-opacity=".14"/></filter></defs><rect width="120" height="120" rx="16" fill="url(#bg)"/><circle cx="107" cy="13" r="35" fill="#fff" opacity=".4"/><g filter="url(#shadow)"><path d="M16 55 60 24l44 31v44H16Z" fill="#c887a0"/><rect x="31" y="20" width="58" height="63" rx="6" fill="#fffdfa"/><path d="M43 36h33M43 43h25" stroke="#c4a2ae" stroke-width="2" stroke-linecap="round"/><path d="M60 68c-5-4-13-9-13-14 0-7 9-8 13-2 4-6 13-5 13 2 0 5-8 10-13 14Z" fill="#e92b6d"/><path d="m16 55 44 29 44-29v44H16Z" fill="#e7afc2"/><path d="m16 99 33-26 11 11 11-11 33 26" fill="#f3c8d7" stroke="#dba0b6" stroke-width="1"/></g><circle cx="96" cy="30" r="13" fill="#fff"/><path d="m90 30 4 4 8-9" fill="none" stroke="#55987d" stroke-width="3" stroke-linecap="round" stroke-linejoin="round"/></svg>